# xmcd
#
# Track frame offsets: 
#        150
#        15052
#        26249
#        40733
#        49313
#        68362
#        86162
#        109001
#        126186
#        146833
#        158898
#        173079
#
# Disc length: 2445 seconds
#
# Revision: 1
# Processed by: cddbd v1.5.2PL0 Copyright (c) Steve Scherf et al.
# Submitted via: ExactAudioCopy v1.1
#
DISCID=97098b0c
DTITLE=Arthur Lyman - The Legend Of Pelé
DYEAR=1998
DGENRE=Pop
TTITLE0=The Legend Of Pelé (mono)
TTITLE1=Fire Down Under (mono)
TTITLE2=Hana Pelé (mono)
TTITLE3=Cumana (mono)
TTITLE4=Ye Lai Sian (mono)
TTITLE5=Hana Maui (mono)
TTITLE6=Scheherezade (mono)
TTITLE7=Magic Island (mono)
TTITLE8=Fascination (mono)
TTITLE9=Cubana Chant (mono)
TTITLE10=Tropical (mono)
TTITLE11=76 Trombones (mono)
EXTD=YEAR: 1998
EXTT0=
EXTT1=
EXTT2=
EXTT3=
EXTT4=
EXTT5=
EXTT6=
EXTT7=
EXTT8=
EXTT9=
EXTT10=
EXTT11=
PLAYORDER=
